solid "mesh_0"
facet normal 0.316227766016838 0.000000000000000 -0.948683298050514
outer loop
vertex 0.000000000000000 0.000000000000000 3.333333333333330
vertex -10.000000000000000 -10.000000000000000 0.000000000000000
vertex -10.000000000000000 0.000000000000000 0.000000000000000
endloop
endfacet
facet normal 0.000000000000000 0.316227766016838 -0.948683298050514
outer loop
vertex -10.000000000000000 -10.000000000000000 0.000000000000000
vertex 0.000000000000000 0.000000000000000 3.333333333333330
vertex 0.000000000000000 -10.000000000000000 0.000000000000000
endloop
endfacet
facet normal 0.000000000000000 0.000000000000000 1.000000000000000
outer loop
vertex 0.000000000000000 -10.000000000000000 10.000000000000000
vertex -10.000000000000000 0.000000000000000 10.000000000000000
vertex -10.000000000000000 -10.000000000000000 10.000000000000000
endloop
endfacet
facet normal 0.485071250072666 0.485071250072666 0.727606875108999
outer loop
vertex -10.000000000000000 0.000000000000000 10.000000000000000
vertex 0.000000000000000 -10.000000000000000 10.000000000000000
vertex 0.000000000000000 0.000000000000000 3.333333333333330
endloop
endfacet
facet normal 0.000000000000000 1.000000000000000 0.000000000000000
outer loop
vertex -10.000000000000000 0.000000000000000 10.000000000000000
vertex 0.000000000000000 0.000000000000000 3.333333333333330
vertex -10.000000000000000 0.000000000000000 0.000000000000000
endloop
endfacet
facet normal 1.000000000000000 0.000000000000000 0.000000000000000
outer loop
vertex 0.000000000000000 0.000000000000000 3.333333333333330
vertex 0.000000000000000 -10.000000000000000 10.000000000000000
vertex 0.000000000000000 -10.000000000000000 0.000000000000000
endloop
endfacet
facet normal 0.000000000000000 -1.000000000000000 0.000000000000000
outer loop
vertex 0.000000000000000 -10.000000000000000 10.000000000000000
vertex -10.000000000000000 -10.000000000000000 0.000000000000000
vertex 0.000000000000000 -10.000000000000000 0.000000000000000
endloop
endfacet
facet normal 0.000000000000000 -1.000000000000000 0.000000000000000
outer loop
vertex -10.000000000000000 -10.000000000000000 0.000000000000000
vertex 0.000000000000000 -10.000000000000000 10.000000000000000
vertex -10.000000000000000 -10.000000000000000 10.000000000000000
endloop
endfacet
facet normal -1.000000000000000 0.000000000000000 0.000000000000000
outer loop
vertex -10.000000000000000 0.000000000000000 10.000000000000000
vertex -10.000000000000000 -10.000000000000000 0.000000000000000
vertex -10.000000000000000 -10.000000000000000 10.000000000000000
endloop
endfacet
facet normal -1.000000000000000 0.000000000000000 0.000000000000000
outer loop
vertex -10.000000000000000 -10.000000000000000 0.000000000000000
vertex -10.000000000000000 0.000000000000000 10.000000000000000
vertex -10.000000000000000 0.000000000000000 0.000000000000000
endloop
endfacet
endsolid "mesh_0"
