solid "mesh_0"
facet normal 0.000000000000000 0.000000000000000 -1.000000000000000
outer loop
vertex 0.000000000000000 0.000000000000000 0.000000000000000
vertex -10.000000000000000 -10.000000000000000 0.000000000000000
vertex -10.000000000000000 0.000000000000000 0.000000000000000
endloop
endfacet
facet normal 0.000000000000000 0.000000000000000 -1.000000000000000
outer loop
vertex -10.000000000000000 -10.000000000000000 0.000000000000000
vertex 0.000000000000000 0.000000000000000 0.000000000000000
vertex 0.000000000000000 -10.000000000000000 0.000000000000000
endloop
endfacet
facet normal 0.000000000000000 0.000000000000000 1.000000000000000
outer loop
vertex 0.000000000000000 -10.000000000000000 10.000000000000000
vertex -10.000000000000000 0.000000000000000 10.000000000000000
vertex -10.000000000000000 -10.000000000000000 10.000000000000000
endloop
endfacet
facet normal 0.000000000000000 0.000000000000000 1.000000000000000
outer loop
vertex -10.000000000000000 0.000000000000000 10.000000000000000
vertex 0.000000000000000 -10.000000000000000 10.000000000000000
vertex 0.000000000000000 0.000000000000000 10.000000000000000
endloop
endfacet
facet normal 0.000000000000000 1.000000000000000 0.000000000000000
outer loop
vertex -10.000000000000000 0.000000000000000 10.000000000000000
vertex 0.000000000000000 0.000000000000000 0.000000000000000
vertex -10.000000000000000 0.000000000000000 0.000000000000000
endloop
endfacet
facet normal 0.000000000000000 1.000000000000000 0.000000000000000
outer loop
vertex 0.000000000000000 0.000000000000000 0.000000000000000
vertex -10.000000000000000 0.000000000000000 10.000000000000000
vertex 0.000000000000000 0.000000000000000 10.000000000000000
endloop
endfacet
facet normal 1.000000000000000 0.000000000000000 0.000000000000000
outer loop
vertex 0.000000000000000 0.000000000000000 0.000000000000000
vertex 0.000000000000000 -10.000000000000000 10.000000000000000
vertex 0.000000000000000 -10.000000000000000 0.000000000000000
endloop
endfacet
facet normal 1.000000000000000 0.000000000000000 0.000000000000000
outer loop
vertex 0.000000000000000 -10.000000000000000 10.000000000000000
vertex 0.000000000000000 0.000000000000000 0.000000000000000
vertex 0.000000000000000 0.000000000000000 10.000000000000000
endloop
endfacet
facet normal 0.000000000000000 -1.000000000000000 0.000000000000000
outer loop
vertex 0.000000000000000 -10.000000000000000 10.000000000000000
vertex -10.000000000000000 -10.000000000000000 0.000000000000000
vertex 0.000000000000000 -10.000000000000000 0.000000000000000
endloop
endfacet
facet normal 0.000000000000000 -1.000000000000000 0.000000000000000
outer loop
vertex -10.000000000000000 -10.000000000000000 0.000000000000000
vertex 0.000000000000000 -10.000000000000000 10.000000000000000
vertex -10.000000000000000 -10.000000000000000 10.000000000000000
endloop
endfacet
facet normal -1.000000000000000 0.000000000000000 0.000000000000000
outer loop
vertex -10.000000000000000 0.000000000000000 10.000000000000000
vertex -10.000000000000000 -10.000000000000000 0.000000000000000
vertex -10.000000000000000 -10.000000000000000 10.000000000000000
endloop
endfacet
facet normal -1.000000000000000 0.000000000000000 0.000000000000000
outer loop
vertex -10.000000000000000 -10.000000000000000 0.000000000000000
vertex -10.000000000000000 0.000000000000000 10.000000000000000
vertex -10.000000000000000 0.000000000000000 0.000000000000000
endloop
endfacet
endsolid "mesh_0"
