solid "mesh_0"
facet normal 0.356553880431748 0.301876064239121 -0.884160716266314
outer loop
vertex 0.027841884560594 -1.866520448931910 1.073777685764250
vertex -1.855816387981690 -0.834629869360416 0.666473229718532
vertex -1.483274491869660 0.834665683035939 1.386649571391280
endloop
endfacet
facet normal -0.075207889712063 -0.524518323314810 -0.848070929717602
outer loop
vertex -1.483274491869660 0.834665683035939 1.386649571391280
vertex 0.240883968275632 2.051257700443370 0.481306518657326
vertex 1.659839202749560 0.706468174823481 1.187202803309050
endloop
endfacet
facet normal -0.059793063143082 0.081781810130247 -0.994855027193303
outer loop
vertex 1.659839202749560 0.706468174823481 1.187202803309050
vertex 0.027841884560594 -1.866520448931910 1.073777685764250
vertex -1.483274491869660 0.834665683035939 1.386649571391280
endloop
endfacet
facet normal -0.390207666681936 0.286080702933737 -0.875154733902284
outer loop
vertex 1.659839202749560 0.706468174823481 1.187202803309050
vertex 2.048467445123460 -0.574256626037510 0.595265913876375
vertex 0.027841884560594 -1.866520448931910 1.073777685764250
endloop
endfacet
facet normal -0.437106513938762 -0.503831851731037 0.745044536020215
outer loop
vertex 0.000000000000000 0.000000000000000 2.319666407981870
vertex -1.855816387981690 -0.834629869360416 0.666473229718532
vertex 0.027841884560594 -1.866520448931910 1.073777685764250
endloop
endfacet
facet normal 0.604733528146471 -0.175544464941965 0.776840717756066
outer loop
vertex 2.048467445123460 -0.574256626037510 0.595265913876375
vertex 1.659839202749560 0.706468174823481 1.187202803309050
vertex 0.000000000000000 0.000000000000000 2.319666407981870
endloop
endfacet
facet normal 0.233552581073874 0.633593549220118 0.737571966834686
outer loop
vertex 0.000000000000000 0.000000000000000 2.319666407981870
vertex 1.659839202749560 0.706468174823481 1.187202803309050
vertex 0.240883968275632 2.051257700443370 0.481306518657326
endloop
endfacet
facet normal 0.481433616696599 -0.481622676335616 0.732298621024067
outer loop
vertex 2.048467445123460 -0.574256626037510 0.595265913876375
vertex 0.000000000000000 0.000000000000000 2.319666407981870
vertex 0.027841884560594 -1.866520448931910 1.073777685764250
endloop
endfacet
facet normal -0.086199562236923 0.670514899056397 0.736871363002764
outer loop
vertex -1.483274491869660 0.834665683035939 1.386649571391280
vertex 0.000000000000000 0.000000000000000 2.319666407981870
vertex 0.240883968275632 2.051257700443370 0.481306518657326
endloop
endfacet
facet normal -0.599931285236816 -0.200283433861012 0.774576657997737
outer loop
vertex -1.855816387981690 -0.834629869360416 0.666473229718532
vertex 0.000000000000000 0.000000000000000 2.319666407981870
vertex -1.483274491869660 0.834665683035939 1.386649571391280
endloop
endfacet
endsolid "mesh_0"
